<?xml version="1.0" encoding="UTF-8" standalone="no"?>
<svg
   xmlns:dc="http://purl.org/dc/elements/1.1/"
   xmlns:cc="http://creativecommons.org/ns#"
   xmlns:rdf="http://www.w3.org/1999/02/22-rdf-syntax-ns#"
   xmlns:svg="http://www.w3.org/2000/svg"
   xmlns="http://www.w3.org/2000/svg"
   xmlns:sodipodi="http://sodipodi.sourceforge.net/DTD/sodipodi-0.dtd"
   xmlns:inkscape="http://www.inkscape.org/namespaces/inkscape"
   version="1.1"
   id="svg16"
   width="10"
   height="10"
   viewBox="0 0 10 10"
   sodipodi:docname="navicon_blanco_10.svg"
   inkscape:version="1.0.2-2 (e86c870879, 2021-01-15)">
  <metadata
     id="metadata22">
    <rdf:RDF>
      <cc:Work
         rdf:about="">
        <dc:format>image/svg+xml</dc:format>
        <dc:type
           rdf:resource="http://purl.org/dc/dcmitype/StillImage" />
        <dc:title></dc:title>
      </cc:Work>
    </rdf:RDF>
  </metadata>
  <defs
     id="defs20" />
  <sodipodi:namedview
     pagecolor="#ff47ff"
     bordercolor="#0000a9"
     borderopacity="0.24705882"
     objecttolerance="10"
     gridtolerance="10"
     guidetolerance="10"
     inkscape:pageopacity="0"
     inkscape:pageshadow="2"
     inkscape:window-width="1600"
     inkscape:window-height="837"
     id="namedview18"
     showgrid="false"
     inkscape:zoom="5.7187261"
     inkscape:cx="5"
     inkscape:cy="6.236476"
     inkscape:window-x="-8"
     inkscape:window-y="-8"
     inkscape:window-maximized="1"
     inkscape:current-layer="g24"
     inkscape:pagecheckerboard="true"
     borderlayer="true" />
  <g
     inkscape:groupmode="layer"
     inkscape:label="Image"
     id="g24">
    <path
       style="fill:#ffffff;stroke:none;stroke-width:0.0106711"
       d="m 1.7061019,8.1372785 c -0.272513,-0.07339 -0.44308,-0.3640774 -0.371479,-0.6330886 0.05073,-0.1905901 0.210791,-0.347401 0.392993,-0.3850033 0.03925,-0.00811 1.013434,-0.010661 3.299709,-0.00869 3.655028,0.00316 3.28693,-0.00616 3.422612,0.086567 0.372153,0.2543143 0.275065,0.8276065 -0.15932,0.9407497 -0.08963,0.023345 -6.497777,0.022826 -6.584515,-5.514e-4 z m 0.05053,-2.6196792 c -0.370479,-0.06581 -0.551557,-0.468243 -0.357546,-0.794627 0.05977,-0.100549 0.150438,-0.172654 0.278366,-0.221375 0.06317,-0.02406 0.06317,-0.02406 3.283283,-0.02685 3.542151,-0.0031 3.299887,-0.0074 3.440354,0.06159 0.03615,0.01776 0.09174,0.05829 0.123526,0.09008 0.298925,0.298927 0.150025,0.79879 -0.263951,0.88609 -0.0832,0.01755 -6.406052,0.02249 -6.504032,0.0051 z m -0.05224,-2.641571 c -0.176121,-0.04747 -0.320994,-0.196106 -0.369773,-0.379377 -0.07223,-0.271375 0.100106,-0.561746 0.376055,-0.633622 0.0926,-0.02412 6.487335,-0.02412 6.579939,0 0.36527,0.09514 0.512801,0.539915 0.276289,0.832961 -0.05823,0.07215 -0.159873,0.145304 -0.239687,0.172507 -0.07811,0.02662 -6.52479,0.03395 -6.622823,0.0075 z"
       id="path28" />
  </g>
</svg>
